<mxfile host="app.diagrams.net" modified="2023-11-21T16:42:51.949Z" agent="Mozilla/5.0 (Windows NT 10.0; Win64; x64; rv:109.0) Gecko/20100101 Firefox/119.0" etag="g17xyIwiwxr8ssm8wT7W" version="22.1.3" type="github">
  <diagram name="Page-1" id="7Ix9RpobbONQJbZpayUk">
    <mxGraphModel dx="1336" dy="794" grid="1" gridSize="10" guides="1" tooltips="1" connect="1" arrows="1" fold="1" page="1" pageScale="1" pageWidth="827" pageHeight="1169" math="0" shadow="0">
      <root>
        <mxCell id="0" />
        <mxCell id="1" parent="0" />
        <mxCell id="V53_U7stMitKDVPbiNtJ-11" style="edgeStyle=orthogonalEdgeStyle;hachureGap=4;orthogonalLoop=1;jettySize=auto;html=1;entryX=0;entryY=0.5;entryDx=0;entryDy=0;fontFamily=Architects Daughter;fontSource=https%3A%2F%2Ffonts.googleapis.com%2Fcss%3Ffamily%3DArchitects%2BDaughter;fontSize=16;strokeColor=default;curved=1;endArrow=none;endFill=0;" edge="1" parent="1" source="V53_U7stMitKDVPbiNtJ-2" target="V53_U7stMitKDVPbiNtJ-7">
          <mxGeometry relative="1" as="geometry" />
        </mxCell>
        <mxCell id="V53_U7stMitKDVPbiNtJ-38" value="&lt;div style=&quot;font-size: 15px;&quot;&gt;U&lt;/div&gt;" style="edgeLabel;html=1;align=center;verticalAlign=middle;resizable=0;points=[];fontSize=15;fontStyle=1" vertex="1" connectable="0" parent="V53_U7stMitKDVPbiNtJ-11">
          <mxGeometry x="-0.7" y="-1" relative="1" as="geometry">
            <mxPoint x="-3" y="12" as="offset" />
          </mxGeometry>
        </mxCell>
        <mxCell id="V53_U7stMitKDVPbiNtJ-40" value="D" style="edgeLabel;html=1;align=center;verticalAlign=middle;resizable=0;points=[];fontSize=15;fontStyle=1" vertex="1" connectable="0" parent="V53_U7stMitKDVPbiNtJ-11">
          <mxGeometry x="0.68" y="-2" relative="1" as="geometry">
            <mxPoint x="4" y="11" as="offset" />
          </mxGeometry>
        </mxCell>
        <mxCell id="V53_U7stMitKDVPbiNtJ-2" value="&lt;div style=&quot;font-size: 20px;&quot;&gt;User Access&amp;nbsp;&lt;/div&gt;&lt;div style=&quot;font-size: 20px;&quot;&gt;Context&lt;/div&gt;" style="ellipse;whiteSpace=wrap;html=1;fillColor=#dae8fc;strokeColor=#6c8ebf;fillStyle=zigzag;shadow=0;fontSize=20;fontStyle=1;sketch=1;curveFitting=1;jiggle=2;" vertex="1" parent="1">
          <mxGeometry x="90" y="460" width="230" height="115" as="geometry" />
        </mxCell>
        <mxCell id="V53_U7stMitKDVPbiNtJ-12" style="edgeStyle=orthogonalEdgeStyle;rounded=0;hachureGap=4;orthogonalLoop=1;jettySize=auto;html=1;entryX=0.5;entryY=1;entryDx=0;entryDy=0;fontFamily=Architects Daughter;fontSource=https%3A%2F%2Ffonts.googleapis.com%2Fcss%3Ffamily%3DArchitects%2BDaughter;fontSize=16;endArrow=none;endFill=0;" edge="1" parent="1" source="V53_U7stMitKDVPbiNtJ-7" target="V53_U7stMitKDVPbiNtJ-9">
          <mxGeometry relative="1" as="geometry" />
        </mxCell>
        <mxCell id="V53_U7stMitKDVPbiNtJ-13" style="edgeStyle=orthogonalEdgeStyle;rounded=0;hachureGap=4;orthogonalLoop=1;jettySize=auto;html=1;entryX=0;entryY=0.5;entryDx=0;entryDy=0;fontFamily=Architects Daughter;fontSource=https%3A%2F%2Ffonts.googleapis.com%2Fcss%3Ffamily%3DArchitects%2BDaughter;fontSize=16;endArrow=none;endFill=0;" edge="1" parent="1" source="V53_U7stMitKDVPbiNtJ-7" target="V53_U7stMitKDVPbiNtJ-8">
          <mxGeometry relative="1" as="geometry" />
        </mxCell>
        <mxCell id="V53_U7stMitKDVPbiNtJ-7" value="&lt;div style=&quot;font-size: 20px;&quot;&gt;Worlds &lt;br&gt;&lt;/div&gt;&lt;div style=&quot;font-size: 20px;&quot;&gt;Context&lt;/div&gt;" style="ellipse;whiteSpace=wrap;html=1;fillColor=#dae8fc;strokeColor=#6c8ebf;fillStyle=zigzag;shadow=0;fontSize=20;fontStyle=1;sketch=1;curveFitting=1;jiggle=2;" vertex="1" parent="1">
          <mxGeometry x="470" y="460" width="230" height="115" as="geometry" />
        </mxCell>
        <mxCell id="V53_U7stMitKDVPbiNtJ-14" style="edgeStyle=orthogonalEdgeStyle;rounded=0;hachureGap=4;orthogonalLoop=1;jettySize=auto;html=1;entryX=0.5;entryY=1;entryDx=0;entryDy=0;fontFamily=Architects Daughter;fontSource=https%3A%2F%2Ffonts.googleapis.com%2Fcss%3Ffamily%3DArchitects%2BDaughter;fontSize=16;endArrow=none;endFill=0;" edge="1" parent="1" source="V53_U7stMitKDVPbiNtJ-8" target="V53_U7stMitKDVPbiNtJ-10">
          <mxGeometry relative="1" as="geometry" />
        </mxCell>
        <mxCell id="V53_U7stMitKDVPbiNtJ-8" value="&lt;div style=&quot;font-size: 20px;&quot;&gt;Resources &lt;br&gt;&lt;/div&gt;&lt;div style=&quot;font-size: 20px;&quot;&gt;Context&lt;/div&gt;" style="ellipse;whiteSpace=wrap;html=1;fillColor=#dae8fc;strokeColor=#6c8ebf;fillStyle=zigzag;shadow=0;fontSize=20;fontStyle=1;sketch=1;curveFitting=1;jiggle=2;" vertex="1" parent="1">
          <mxGeometry x="860" y="460" width="230" height="115" as="geometry" />
        </mxCell>
        <mxCell id="V53_U7stMitKDVPbiNtJ-9" value="&lt;div style=&quot;font-size: 20px;&quot;&gt;Factories &lt;br&gt;&lt;/div&gt;&lt;div style=&quot;font-size: 20px;&quot;&gt;Context&lt;/div&gt;" style="ellipse;whiteSpace=wrap;html=1;fillColor=#dae8fc;strokeColor=#6c8ebf;fillStyle=auto;shadow=0;fontSize=20;fontStyle=1;sketch=1;curveFitting=1;jiggle=2;" vertex="1" parent="1">
          <mxGeometry x="470" y="200" width="230" height="115" as="geometry" />
        </mxCell>
        <mxCell id="V53_U7stMitKDVPbiNtJ-15" style="edgeStyle=orthogonalEdgeStyle;rounded=0;hachureGap=4;orthogonalLoop=1;jettySize=auto;html=1;entryX=1;entryY=0.5;entryDx=0;entryDy=0;fontFamily=Architects Daughter;fontSource=https%3A%2F%2Ffonts.googleapis.com%2Fcss%3Ffamily%3DArchitects%2BDaughter;fontSize=16;endArrow=none;endFill=0;" edge="1" parent="1" source="V53_U7stMitKDVPbiNtJ-10" target="V53_U7stMitKDVPbiNtJ-9">
          <mxGeometry relative="1" as="geometry" />
        </mxCell>
        <mxCell id="V53_U7stMitKDVPbiNtJ-10" value="&lt;div style=&quot;font-size: 20px;&quot;&gt;Warehouse &lt;br&gt;&lt;/div&gt;&lt;div style=&quot;font-size: 20px;&quot;&gt;Context&lt;/div&gt;" style="ellipse;whiteSpace=wrap;html=1;fillColor=#dae8fc;strokeColor=#6c8ebf;fillStyle=zigzag;shadow=0;fontSize=20;fontStyle=1;sketch=1;curveFitting=1;jiggle=2;" vertex="1" parent="1">
          <mxGeometry x="860" y="200" width="230" height="115" as="geometry" />
        </mxCell>
        <mxCell id="V53_U7stMitKDVPbiNtJ-17" value="" style="shape=stencil(lZ3Zst62EYSfRrcs7Mu1k7yHqnxsqezoqCQ5y9tnEJn/0sPzwbrTgvlJgsCgu2fhu/zT1w/vP7+8S+Hrty+vv738++PP3z68y397l9LHTx9evnz8Zn96l//+Lv/0y+uXl1+/vP7x6efvf//8fo1cf/rn67/WL/znu12MR5/LKoX/3v4lxf//yz++G/z+8dOjQTpiUIPABjk/G4RjsEFralArGGR3S+FIGQ1afTKYx6Dx5chJxme6oXqE8TR+HKPg+Blk/J8XvB7fjv78+/38h+vx9t9Rxie6n3G059+3CwYYP4/WZXzsb49PQX+/nj9wPd4WaZbxtEZTOsbz+yo4Pykfs8v43GB8PeLzprEfoN9vR+kyvsH6sdczoozP8L5sOaYg4wPcf7b5fx5vEwbvN6cjZBlf4X3lrM+bcD5zOWaR8X9O8PV4m88k4wPsl9x1f8Vj0P3Y9h4yvsN6K+Hc3vfxND8lHUmc7lHA/5R8br/7+ATzU8z/dBkfYb2VdmQdTy699KM+z49NAKz/Mo6eZHyH+S9T/ZstWFj/1X6uy/gK66FG9YfhKPC81U4kHU/+udr61/snf1vLub3v48l/1pv7exgP+7c2PSDDEWA91H4EvR/aX3VcjKf5nEfU+w9w/+02fX/tftptOz2Mh/XWkp5HNp+wH1s5b/fh/cLztnq6v4f1Q+Obnne2PmH9tOHns8J+bNOvzw7roYcTHt3HT3hfPZ3u5sGfwP33rP7c/BXcfy9HE0h5Yszr8dWB3KOA/+ztdGf38XRedztf9P4J7/Wh51HC9dmn4pmE/mcE9W8J/eeIJ75+wA/0+0nPi9uBfz0+H0nxGP5+UfxccP5t/HzeX/U8wK/H12M4vArrYbQTHt3xc6Dn7XreDfRvY+h6HucDXY+fR31+v/MEUJfjZ1D+YgRpwguY0QGIeEzYYWbQZccnvqWkR56RMrxCOiHbzaDwFbK7QkWUbgaCIow30bac5fRSN4OB57YZVLnCxI1sBlOAdzhf/bWBIQNB3hFduxkIlFt7n2bJ9s6zL7XNWWiWmpIl2534ppueTrbdCt1S0xdn+yHAfp79hD83/3VDkG8ZZDEwBgQ72gxEwzCOQ5KEGQgFzRV9wBxHep6lfLvmWwZVSOtEFmEG4iUXz6FZmidquhmko9AsTcVFxnQ2V5CDqtwW/FsGwpyM6zTacVOpt5EdXK1T94Oxl8RXELJr9IXQyDIQtYTpaAxB8akxmPmDFoW3kN3U82MvUrIxkDO6IUlbBs+HltESYo3rTcgVJh6709HMxjzNDNrzQxvT2DyD7LnGSst0yNy4RiSHPxWKGdkgLmsG6XmWFttgAwHzjdGMGQgbNL6RyWDoKddvAtWbnul5afSIhMQMVADNiPjMQBQy4xxEwcygPL9pIx0bdywvbrEOcjTm8J/fw6IdfEtRZmki7F5nkMjWAXmbGYjuNVg4WsfiUAP0rl2RrnEPCh6sk1oM8gmu3zIQbcTYRKFZanosGp0gtjpvJ86DwaDF1xRtGAGpbBCe97QxEDwWq8J1M6ADwgxEUTHOUmla63l83AzmuRzfgrq9qAH6paKzZDQnMb6fUQ2IppuBPLTRnEzTmlQ3MAMSRs1A9vRMfIXbefNggM/gQi32VHROr1nPakDBn0Ven/fDLMgghtvTZkDyt63+5K7QSc9w8YS1HElAyEdtakARF/NC0RkQrhxBd9ysrKE5bDxZpOjjdL0PBkSb7LwRNDMbhsnsRBOZbrIOYmem6NTLPZPQldWRrRODlD07PqoakG/tQb33OiZhaRh2Ee1nHfUkVg/3pgc+Q+vKUSaHiw2wiVw0+WA3SFiLGtBaMtBZghrQfmj5ZLcPBiQJtlvE7sEANWsX41lonIIYU4OQC+/DLNWhQPdOEK4NnCy4KAjFeW7Q/NEA3sMiYc6AMF9NqjAtAwolReXsd2Z3aVBcrP+BPF5bDJXJ7oz22qC59Ax+6uLyLe5c8NrABajXq6YIadQIyFp9HBKO7goFrpCHMr/F1CjI7pJAlheAac1V+cDyM2SQT43r0ZNRXD46hDXwCMpBSdBiOZR5MS6uQCd76idMfTwgwBunprHGdQTB8k5V6e7mkEvZHUEdX1xK7kRpKFcuzTeoASGsFf9zBnSyx3kBZyiFJzrKvqRqyinqDksXvkJTFWGyhGUGonlNDmP5tK4N+I5F83IW4IcjKGYH+iK6mZjc8o4IBVa+nyy+gFs0ulDQ4BMlBsUOY7J8r8FZG48igk7qoqLwyMPR747Hz7gg06SodfWSK1xI0X1dpzaemLFLzhkVAWjVnWZ0iJSoqsHBwZG4ojLryBjauAlnDxJOpdNcgzMj4nxmBSRLhKLsLs1HHZyNkRWDGTWr5N+d1jhQ803Kqu5M7o3xKut1ZDDRiaWNnZCSBeN9pKtETWYz2kfzGXV/Geuj8cbYRPdMiBGCht56xGye4CT3iZG3oHHlxfjw94UaNQ5nBqe3Nzwpg55Kxt5IWQiazGnkjZhX0PVv3I2AqQslGXUjf+t+v04UnNz9G3GjYzvoAVY7KmBB99c9fe6t8RKeK0jqggZgakb/HFTnrBxVDWc4/jY+YggpaAZAmehvHVYsA+OXLnmsdNTLgwYKjd5h8FKT30pBlhJ1/o0N0nkU1T+vqDa8r+jmM2LoKKrwbdwRYajGRfPE+086P0Y1MftcIyi5b84vkXONmZKCkHT9ZBY2kybLGZGl+czueQvqPlnxT+bstOyel7PzXfJ2TkhkshKfe/r9X8NLeZNNrqJs5rSOopwkM14qOj8L4ZMYc+YmPoxnPCl8wRA7nRe+uGCg/6kaEDSET9J+1RhO6hg1dSr6Kg/B8ZqhVU9E9MZ48SeJ8ZsrPkq8X5rqHangfDZVwhZiJ/FZ8WTKiFebiqrLw1C2t1LmlFjbduszYvJkc/MfMWevKZ9KjFebZoolTl7rig8XQoD775pYFlnV7oo3IlfHdZe8PThkoxlZkQMwQyMLdynpjfGCB2w8xWCH8v3YcH7GuRofxpP/nO7+b+nrb+khWcdjUqny8Vg4SO3eV+F8NeWbcaPDOUAf2UFEx6gix7SXJCUGu3w4Tf9ZQhtxYBfeNQMkzQ7lRk5hsv+ORQ0oqd/+O7sr0Lpev+dKgSNfQSIQewPN4Y4I/aLDuqs6mdVKcY72LyTeLQP30FS7twzcQ9NxGV2Iek3D5gquwpoAdXTBKVt8qN5fZesTxV1Lo7kr8HuQxMdlwO9BTuX9fijuxdExuAzci0Nt/eoKSPyungHruP0sbYrvowu+cmXnxZtmcHGxliLWNFyu1sS35PfDxi/5HUeA6nJPY+goXjjjsdnTzi9NfujhdhyRBB+nWQbsBH7YQFLJYmLdNrpGDizkr5XjvAYpCetQdEVBeD64pJC40XKCJnqtsiN60059ixt128m3ZkD0dLrtUDnz3sHJinLRdDVHFXMjpnvLjVMSlV7EhsfbcA6mb+C80N/Y8Y0N98J2dEHf146OKMLg1KjuQNJEON9db4aA/tTIytTx/Pu+QozCj103ceJT0NVWJQ7fuXCo0XEsplY6uIpbkS43JyeQ523qIVLGcE1TOrWagVBC4VkL8SCfYHG3rs8laFFGlx5+S0CC+am6HxOHO6pCkDXDKC+pHNg3clR2chrRU9eLxXY0yZ8uXWdTbFtcvSNnNro89rxJj1P/ZuM5PC7yYY54XhSVJzMXsxcNl+WEcmzW+cmJm6voflxpZvj7Irfkgv4hq3y4ustweF/GcyZ3cs/bON3Lyf8crk/ueTuuTx+u2aUbSHgzTwbHislKwGIUJwqUyN27ND2nJEyviCo3lsw6iM5PKcwTVa4uXDYeVb0qHc/roHypDHze4OZzoj8M6p8rEziHiFd4Ge9fUmdrxjqdoPikFsRvrlfBCr9zeoUL73M6ieR31l34Osn9cF1S0PDaNv1Bx6fN+pH7X+kbPF5KUAvic0d4WkN/FRT/NE6XC5pe1Dgc7QqYVkUGjtd0oU1/QsWrPSEejq4MM58I+S1/JXWehRUY7R3SK0ttivd626SPJTee0v2SalSdmw26GrjO/i2rv12VT3hei4w3uJlVdumQzI+K4skREZ84/DYSFpEXfV82nvxhdemTGWXLqnrCKJvwps5n5aIuxc+Dw1OOz46G/HEo3xzchcX1lhtcMjZ1/Q8uAJuu3Jf9VXT5hJvKVx/ZMQOqOPBi4gyY4RVd/7pVFsodVX3lK3YMLRo0nhG9dKyu2GqTVeVqnGdmfbNfpPdj24zuqkYLhxVdgxQzQNnY1xJyasYCf66Qlci275Q6G6odi54MNaDeWUvdcKUiFK1dhNsVsiKhaRqQn53bvXbtCmMGJKkk13Bi1fjQGeJA7Koiohyu6K4wuDjLZZWtSiiqtaqucI9xbPbVigPXUnYtLTb1YsVlwq6KNJJWovaPmNw7p7jD/95C6NrgqjIQ1Zur2kOUY66qG4kf+wLKye7+skSTrnBZBEox7er6WW4e+rKQlfphGYeTpL1NOeRlMW6mh74q96XgawsaSLm3xrk2SBfFuJj45toebio0jZmpmxmsJVfXDmIgGFul487NbIrTdbUOfHHN4bHlyOgKrgvT5P5C3XVbntwYqntn3HG19nxR0knwpzvSMBuK9L26AntW0Vezhq4GdE6v5kDulggv9al1LavVHwXOgsMaFePyq2mGuwItjZFd3wLu+TiKxuUn174NX+1bMHlxdHcCFczO9r09J2e3LfDvOrZgPl9QBXVydptB8/JD2Nv+W4vZE7cAS87dbxqluST8GXFazUDRzKYzZlFnvKljXSvH17HyFZR5D+7oVZU0jYHS39pfwl07at/Tf1iic22ta9Y5Gu6HVVguD80MZbp47Nq0bCAl/2PbSlMiHIPrui96hiXu3dYVGW9KVGfXHHJznrhFXdZA37T47TpLfXBnNdez3U4MzAsZTqhr3Fp2OKWxchuzoYfiqiSlpTGUNC0tltzMUPjT467pnqqxHJ2dLr3F8A32lByqOrRtw9HgBHoirwulSsfHynt6akhlNbznvpjyvQzDytSga4F/10gTT6CpKutq1clNKIXHVQ7zz6ll26vdKD+DpFauhqY/1G60svozXWeEfVNWNWBteRm4YCHVMi8D17x20wFV0Ezhtjb3vjo3g47Zz3fmeTPgrxXNqRGuUjnDzW2gwt/78Q1NV0x745dcq2V86KFMMU/uWjlcmkPnqpKuSyMzf5iuDijzV5RmV4q/CiPpGZrq3qtykftiihCSNr2ZmyKyFb5gvCTKSeLGOavzpkv/witUl9+X+UBxklfa9Fgt6shS2HbelPzqyc1AXRuzTU7mzOoEVk0WG2gr/saz5Lp0xMpLI2nbmbiBoS6xZVUp0bEbXCYwZwJMlzoQIypYdwJzM+CWqfcmrzeWha9huNq+wWy6+Q/TkRdboUaBAZj7MIpGaOqucai2QecPlWR1YQVFypFcrTlGyVboWT/sRhR0uOSfjCy6O8CQcOd3F/HiXKHuPrzGuYTd18JibH992Ec/XEYRivXhINmTCHd6dhsGhfTuFC4uxe/B1bZi0Kc5kZsL7taHofRDVQRcViv4JOOJHjWXrMsnR8sqSgY8/K4+zEU4qrleHQFpRXOVpFwaffXhMmzFNZSrbca75PnN/Vx82A2jKlVFsMBhG9djO2Auz/rwnXu/lIuddD8GbtHqkqP4U7LVJU/yd4+K84esQpahEnjEXLD14UT9fTp/S/MfoqT148OdkYOX2aEgFO+MxkjxAtfJFZeMF5GE5+nALtYiZPfhNUZMuWleS8L9lZ2ky2Xg2a1/bkWRkytG4PlxUj/Xx93pzgN+2Hx4VooX8HxMzXFvzjZx/qcg806OOBSUHJP7SFjlDxG7ZPXKvV5dyKthgkOc6q8a57YPlVe4M2z0MjH62+gYNLfCWV9Mk+Q3rnX3WV1cC+z7jHNuftb5iQEZz6Jc7tPg2FsiufJK/nalGWg7DcZwq9TelTNvOrAK6N6XM+vniNmtx+hg6NbAd36giMllHTquVJfIdi+Wf9MgOYNNhbV7aEqgiq6rcmR0f3mFTaW7f4ZNAwHdD9v+GH55Y2JndIho26JgZ2B/+Pz+24fvf/nl4++/f/325fW3l8f//+X1y8uvX17/+PTz7Z++fnj/+cX+9j8=);lineShape=1;hachureGap=4;fontFamily=Architects Daughter;fontSource=https%3A%2F%2Ffonts.googleapis.com%2Fcss%3Ffamily%3DArchitects%2BDaughter;fontSize=20;" vertex="1" parent="1">
          <mxGeometry x="28.043965500593686" y="89.77748565374509" width="1200.0576649546108" height="631.299776389604" as="geometry" />
        </mxCell>
        <mxCell id="V53_U7stMitKDVPbiNtJ-18" value="" style="shape=stencil(lVzJjh03DPyauQraKZ6z/IeBOPEgjh04zvb3oTBQv6did3V8cyaqbi1Usbj0eynf/fHh3e/vX3L84+uXz7++//v1p68fXsr3Lzm/fvrw/svrV/vXS/nhpXz38+cv73/58vnPTz+9/ffv7+bI+a/fPv81n/DPGy6GJhOU479vf0gS+ttffnwb//H10za+j328hprYeNFtvP2lDjZeyz4+hUbGp5DiPj4HaWx83uefS1Ayf3t72se3kAobL/D8Hmq+Hp9D3Pc/C51/DgX2U0Oiz5e+jS924vV6fAlpn3+xGXY2vu/zKSUImU8NZT+v0pYFXoxXeL6ERp7f3Ho19Hg9voe+n2+1EyTna2/f7bOa/ZDnj9D29dZO7UfR3uoIhdn/cZwL0OJa0jnguE8HIC+bPQfk0PYjaJUuORX3hh6GEkDFTW0jDPaGFmrbAN0WTaw69VD2N/TMt1VC2u2o1xDZvZegeQc0aqhprBkfgM63Vd0aRkjk6hiXRpiS0kVPst4BYtbFyCjhOUha/uEckJFexIyPrSHjtkoJg5i3JySpYRDTMIap+0lLC4MwnlFMhkWbebNd6ngOItS8DSC7U5DBt1WQNeTgkXPACHk3vhFDYbs0kIeHeVK2Bl1u7AAcru7ckcR1XZ4AzDOXhOcwuOsxgMKi7ewJL5nra7tpjEYXbb4vFQQw0zBABwCXC8VYaCCA7lJdcusASCjsHOqy/icAu3HF3Ycxlsi6AkhEgLBz6CGDaRiRsW3t68ovgB5ceA4QlMEGYLxUxlK9ByBRqiwH9R6ATNdQI/KSmnWRK2rCBWxJubStOQyYUqVetNblbw5AWz7pHNBQ/RhA2Rvs4OANnV7R6ojMAMoAiuJEhd44k1O4S7I05jkgIwnooBK6FXTsBmDbavqrCgKY8bWG3GoARpUm2PwbmBdtsoz5CaDsDQMFlg56cAYA9lYNkU1JUc1MADkH05BorUpdVjcPpN8EyBitTgChyn64wGcAOele3KL5tpqshfhhAghrmKwtDsDY22RtclNiNNM9CRjbkvvQBYM4PazrHGD3C4zPfBx7g7o1yKLnK4BnDWatprQ7TKnTwNiUdi0IYKZhShu8qJEx41ZT2hG2tVJlbABI9hiAnYNJ8+Z8HCNjaY4qMw3vTZrjjUtLfVwBQP6YEuhsl8z4nDihUxpIlYObtxxX/kmRJTYlYz4Quo0nKUxrgCKrNH4w8Y9TKpT5RsK8of2lkTWY+C+wrZEG4DNa2BdtG13JjbMZNx/HMYCTP2aOmVirAeA+2A1hpmHHVPdF26WN7Bz62pOniJ2lYw0A1mpcONgaZEU8B0CW3r8CQAbUPEZnB+fI2JyYcoC6ZE4iXtQuJDh2c/VMe89oYTcNUx+M7idH7G9onL2NhRKk7SrdJQOAf5hpO3LSRowJ1hDpSU8mdalHdg7G1bBLlfu4Se67aViAkNg5FJQ/tVDjM39TXDqX5TUMIDvAAjVGxuYzIWF/k5CeTna31pnxJsynPoVdqAeafh+mlPhJd7xxJVKaUZclnwkkZt4uAM+dlnGmOtptaWb+2TkIBn658DstyK050SycAZorXWV2DoIHl7gyVpczTkIDvxlIQrWuUbFugLwfXKq0/KNOnKSyHnEFgDRFSndTggA8RZrcnNEChAM02J3hyD5+8As60FYPRXc1XqH4ECI7ZcX0b6WR8RwPJa8VS1yNh9gkrwlejt+fH6k4tPE5w3gmYuZ4fD6lYMWSZqR5LnUlMp7bs/FQaLkhO0X7iXfnO3B8ZlpB0X4i1dop2vsjAGh1zANMbfAVw4zSigf+54pNnHCLExxP/ZM7sRtKcRaRaL3RW1yiFVBv0bwnwd+YtGTJ/7yR6c5CM94AFtPO8R3GsyhbFZ1ApPGmja/uxnB76GjQkc9fyrc9f+CNZ2Wbaf/4/Jv9UWQstv+nF5Id8DcD5oygrYILa13prodPynzFcAIW+TKhoi7MvNtRLMLe+TBQsINmpuYNgKTl3XjI4ZtIYWnU6bThwDK3uYF5ptk2wWWHOCnH0hVTaMEbOj/k4WhReEw6HM8pd5UD0xXT9/GwAOOIzN8gyxM9hQUs2TzDAnhD44JXcNH5yFdfxUIKLWGDL7pjDr/cKKjuQszMr79Lyc+6MntDw0yWBbHKLpCPeoWrzLZqM0+BODXvigmR2bnFcwNQp643cXVZKuUpXUEPrmAatQptdtSMwqse0uQKABmUllZD3VXaCFxVu4nnEvryxhse1XVsNuFXNK7+g6fkGuPWoXgOnUcsw7F9502hw4WYsyxGqNIA0IbRObcOWaWWpzQq80CPto4DoDyd3TFhLoknzF0bhmRKlQaARUulKmCctlbxlDyG4rzMZgAgY+EV2JFReo5I+51HWjx3APKyrisAFi4KNz5X+bvpMhInPx9Z/SsAxC9mjiy5JgPbYYbyipOgnpy3nAOA7mf/DK/LZdc/09gaGt64Sc+sPupSwdNjEPaWgsw3nRibUsGk//SrrCicXbmz0w5Ou/JYze9USEvEnKVyl2UspK6wzd5gACggPXTmOWCgIntk9M4B4hKEuqq+54COeddHPHEFgFrKTDkwQEMfNyMo1lVRsRj5CNHOAQUjshkDsjectZIob1aBPORTWHqOcP0wt4joLqnyLiB1l/QwyHOAKxZOAOvGGu6S8o1t4i6p0qbP2VzlzpoZePNUptRTzwYxt4bK3lBOOplYoa0547hr34quJXNQ9T0b9XxXHGuYHNhb/qivnAP66mt95j7ezuhbblhqvrpuXQOwulnNWDw3D8GS7RbzYGdfpbnPGp21VhorWhiWXVsp80HFt2RyXVnEkWWi8qS4JgZNdx3H6tp7O/uqyTViKC8CWPysTjHR76wqlsGG8hbl6pqgeV2rlMVCTwBGxsWFr4Pfh+I+zjAhShu5MzZBzwYWdnDJ1fIaTYUYAHhpVOqpZ2oF1DeX69k1EM/OI/YlxMDwdX4JQbY1u+DSYgr6oY9gS+bd1xwdo6C770WaC8wGDTmyS+cI/650JqChuapzQMGmHlP8jGbmp5D7OZjiZ1/KzaoTTKncfQ4FVGkCnoUc2XUcC0/nJHUdZZF+/plcMbnz9t7kksCdl8OTU98zFcK/xYNahYlfFgWl7pIther71LCeZsqUSYfkjK8pjUZTwSC/CW3qSS6Sa9yxJ5dGaIUGZiligNxuqo7oputN6gT9z0M/nYeWLt1aafa0u9atTKvQ7hvQyuvuLl9cBu0aLJibLTzF50zCPDb92hKlnnlH9uVxxv2ZH8Cxi4nxXuZRRsJykZ0423/3+Z2dOHNrEdl0fqvNfzlg38/5pSYdD/HCrIHSXzIA1Tl3jJBEdOuNtGsgYs7AuJhV03zJVyhTn41nwiViN3/ilBVXRehpPEtAR2Tp2cxG55/c81llImIeaX6jTecDnD7H0+cXNx9W+Ij4BeAcT+0BG+WE8lV0TS1C+SRiBinxxtRv/+WPu/H2j8fPjPz8+vHj26+UPP9//FkS+9PbT5qUH/4D);lineShape=1;hachureGap=4;fontFamily=Architects Daughter;fontSource=https%3A%2F%2Ffonts.googleapis.com%2Fcss%3Ffamily%3DArchitects%2BDaughter;fontSize=20;dashed=1;strokeColor=default;strokeWidth=1;perimeterSpacing=0;shadow=0;sketch=1;curveFitting=1;jiggle=2;" vertex="1" parent="1">
          <mxGeometry x="220.17051482312104" y="97.90057106770917" width="640.3578163229279" height="270.3462781924751" as="geometry" />
        </mxCell>
        <mxCell id="V53_U7stMitKDVPbiNtJ-20" value="" style="shape=stencil(lVrZbhw3EPwavRK82Xx2nP8wYDkS4liGLOf4+xSx4GhY3K2F36Rd1g7ZR3V1cx7Shx9Pn74/PkT/4+315c/Hf54/vz09pN8eYnz+9vT4+vyGvx7Sx4f04cvL6+Mfry8/v32+/P/901g5/vrr5e/xC/9ecCm4FgYq+v8un3iXLh/8fln/9fnbeX12lpf1wVkV65vLaVkfXW+312fv/Pr72cUk1kdnZVlfXFXri2t1Wd9cUPsxl9f9mGt2e33xrsXVPt5lYdASXVk3FKLzCpBcXz0WkitqS3nu+AAU5xWguEA+rq4UCYh9Bdh04y1AWr0Wuj4DAG0No+CCBlQCxBm51wHV+fUMiLwaJYAiL1aXlZWMQxuxlBSgc24m76II1opcXD2dosyeml1Zt4T8DiKda9u2BLuJLTW4ya8Ak+Hd8gyEA9BdF2doxk/IYXrmKsCCS2vG5SRz2rLLa2gMFhFnsObieobcZCzZccQDgHwQgA6/rjRTcKouAHm66QAkF70A4IhraIBHFHP35vx6BmSIslK3GWoHwCRVAkBWqqgWIlp7Z25FhlQNsNWsNU1quwXgLcFKyqwArKFRq/R08DjjGt8VhhMJgUdQCar4RAPS+gRkbVLRZ0wbDVVd2bW5RIA8+flW9FUq0yBXtaXEOTp4QT3Bu7IyWYNrRIGwOh17KIEgz2CJEwKfJPEE7LitFQXMo8wKI5LjsMksmKx5ZgFQleJKBCcFH6hKpVyNbFYYOig5gxxdHdeD87rulsgAWdkT5wPYU8oZP4nuACQXBAugHPjVcaBbqaI75wMCXlV2lGVSJ73KQh2R8gRoc5PXAZWFMQAmDh2hQ8ms5qrwAzqLSgD4XvASNGFoDGiKKyvT9yB0YVYoZ/MMUEVuiHmSxu/8fD3lNsd1mdO7o7tssNC/7TYSoedZeXetNPxUa6f1KrT9FkZ96rPrUTFD4BRFXaU/9yZY30SY2tzteb3Yf4BB/QYQBwiZK/oAKI817scAMMHayANLbFOZy35m7gkQ7wC2KMrqDP1K2CllhUPXPa5VLucZ9ufEEfQCx1HjcC81bXaQ5yeonpLr+VgvQztvqdYEuXjurfpRG2+l5kZeSezfzw7hnJpyP7+2PrFAQlwnSY2J2LrJ88LDJHe67jBGPdjKbFN5ALVPgCz1ERpyTzGUZLea2ua0KPkuQ6duACXOc94YMuiRmE29dZJs6tBoNYmPTFfNUrhLMk3y9dCMJ53aRPKj66JYghJOalRi3N5alnV2dDhrNkDNK05tW/ChX1DhbX52OKeORKmX0U6sJDx6HmFWK1vfViVjjEEGNUno29RsBR08tZKwmwJ0HgKM3lPNVsCJ66GrFoXWuZDc6Z9tK7d3WnTbtPadIQAAlYYAeswAQF79MAYZynG2bcnLma9tJFCOyfetdpg0xhj3KABa+vUMoAVZntOMnPPISj0h8iQQTKXO0LZxTz6i6zqgsWQYgz3VcGeuoWN0qOelcQ3vnGR3WzfH5SAr0Jj50rxUyySEGrUAY4SrdFLjRi/VWZOuAzJfEqHfjWpoEHhSMgbd6hqnb1Nlfc8Fv5KYGZ2EekJlgTuuAxRgK4rjwkFfXZHjYpR1GoBIAH1pAgCR8Z1rmTH42C9+1JYyDw3G1ZJqh7cbilBkP4l0qXS1lCbxXAfEWcYPQJQjLqQL3R+MqYDSxW2TDlpUljltOmqiVBqIfVJLRVbE2HlclaWijJWnhkne+eBr0lZBagA0GpHvoNU9AL4m+3i9/23U62UdGVmSab2ctR3x8r7e68kZ5aWXt6VxY2wvr9DgfmP7KIKP23XVnd83Htne2X9nttb2ATVX/v2g4n+70PPy1vOX33m4ux5/vL9g8eX569fL+xnn7/mFDHx0eZkjffwf);lineShape=1;hachureGap=4;fontFamily=Architects Daughter;fontSource=https%3A%2F%2Ffonts.googleapis.com%2Fcss%3Ffamily%3DArchitects%2BDaughter;fontSize=20;dashed=1;sketch=1;curveFitting=1;jiggle=2;" vertex="1" parent="1">
          <mxGeometry x="380.6036240163246" y="312.5708235363022" width="24.642692389038757" height="397.8438601001758" as="geometry" />
        </mxCell>
        <mxCell id="V53_U7stMitKDVPbiNtJ-21" value="" style="shape=stencil(rVrZbiQ3DPyaeSUk6n7ebP5jgfXGgzj2wutcfx8qA7ZHZHe1A+TN7lGNmlepSM0lffrx+OX7w4XDj7fXl18f/rx+fXu8pJ8uzNfnx4fX65v8dUmfL+nTt5fXh19eX35//nr7//uXuXL+9dvLH/Mb/rrhAqU+QRz+1gcx/vvg59vyp+vz3fJIKS3LmWo5Xs4U87I8U8vHyxPFsixvlMHyTLkuy2Ogko7XVwptXZ8pgPWNxuqb2ClU4JxgzRUHpAAATIVXQKUKLI6FQlwAKVJgAGhUVpemQrGBiIkNa4TTIAY7zAxYvZQTMbCBi368ARrMOYlDGwugBOrArUmSenVrkVQBNiSmvhpdGvUOAIXSmno1UgSpkeT7Vhtq1q/Yz+1AeX2lKsUAjM5MY32lttX2PqDo920ACRyIQ3ZxaIU6sEHCFM0OnRLYobCllx40u/YB2Xqpszp6H1A1ETZAVqv2AZ14JY1eqQCja6CwGt07ZBnJnLoGrg8YuCphWmt6YC9JqrXVhhE14fcBlXh9pcGw4iQ3m3mlRAXQTB1uh6xP9rk42OQbOHBNcmmlmVHwDol6s4AC3NocCQiggfRu1dlQNDL7gG4PxAlARg/KzgYUOKmvxg4AbOjR0swZICkxfhSQlSM+CiiWBM4A1R6KZ4Cmp/IdoII4SMmbQ3HmEjiBpOQ9AFHlLHnjpUwDASIVB0DqSko+uZoewIbh5Js8QUQmH5tDcTDkJXljazQTgzi8l/wd8zW0gyRCsQCkl0a1p6hEBu7QLC9J7Aeyoas6ugMgRSaAZg7FrrHfBwxrgyR8Qa809Ai8A2QMaNECOrJhUM/OBuRWcaJza0HpvXn9PnAg0jG4k12yD/UDcwtfEICNp9UGkLUID/3qqC/iHYo7IDK2wQimCcCRM4JpEhPewdJG1j7qCBCqdWs4ARgvCQsgYhr6fXe5kTHA1+hJpNkAuvLCEcCwsVQQEhsz0q6oT2ywOrTpk8NsdUqXcbYO56WIX8l04BIHVA97NSry+oQ3TLpKI3VSo06IIn0/a9QVBOpRZiBcUaf/FdCVfDdA1c7rCGDSVQAVZV9zx2JVgj48R01RN+WFo5PaJNM8WVHgitOVDer7qTaKBaB+d+ojQxsd2yCKaVhARnFgjesdALJA1FNzAwytkENdmS0ASaypXIcFoJN6amMHQDbsqO8BpzNe39/xwgdbiFOE61JOEa4ROkW4XusU4dq5M8ROx4jl6E5PurH0R7veAQXBTl89ICXPzt29UkM7sB0QTpkD2KkFx+EdGj3nG8kC0A5zgmJeaZupHM5oHIcPNHLJbocKU2POmQyHZ1Xlh5Msw7BJK3F/uOYFMuueh9M4s8OW8UfzPpNLQj8DvVJ2gAbFZWHbYgo1oCa2BCsuO2sNHs5d18BJmQc0qC12jNoaHjaz8ukGyJDDc7BeahFGes6/18DVrvr0aMLO6yvVAo/3xHYEWRlejaRg7yEku9Bkd95DrPUgyYI0DRdLlSVCgcysbbcCJPZogsLBdjYZj1yi6DJzHzSg8otZqXcDFBUt+wBJZnNFFSBrxKBhUgBXOCtrlu3nLRu6VbCqLHbYRPiTXXwAXMTumjDCtIiO9ODFTrSyQXQx8E6wpJ2huHJXlhlykcTKXPbBqztHdQleFwd3u3liqun1GE583PIIZYgrraiJfbR8DVOA49hgBwYB0mHQIeT7cnROOmoLsEUNNuOxZvyPvxk4XS5/vP884dv16en264b7z+3PGeTR7acQ6fM/);lineShape=1;hachureGap=4;fontFamily=Architects Daughter;fontSource=https%3A%2F%2Ffonts.googleapis.com%2Fcss%3Ffamily%3DArchitects%2BDaughter;fontSize=20;dashed=1;sketch=1;curveFitting=1;jiggle=2;" vertex="1" parent="1">
          <mxGeometry x="733.562741851069" y="329.56341455739494" width="491.62335995068224" height="59.68655846401998" as="geometry" />
        </mxCell>
        <mxCell id="V53_U7stMitKDVPbiNtJ-22" value="" style="shape=stencil(lVrJchs3FPwaXlHYl7Pj/IerLEesKJJLVhL779MIg9GgMdOMbxKJxgBv7dfDS/jw7fHT14eLt9/eXl9+f/j7+vnt8RJ+uXh/fX58eL2+4a9L+HgJH768vD789vry5/Pn2/9fP/WV/a8/Xv7qO3y/4ao3zneUtz9un1iT3L8f/Hpb/3R93q93xttpvTMhn68v1fh5f2+K2L8kE/O0PpgUxXo3thvro0n+fH3OpsVpfTJZ7J+tKWFajw3s+foUjZ3PDwO08/WxmDjv30wV+0fYv872dyYKg4Y0/LMBgnECgAO0NgOiqeIKsKAvMyCbImyKkPGzD1w1WQQRvg5z0CFKlddwAHpCDzsFiKalGYBP1JECW8mXcchTwGwlGLoIs+JIZT5S8CaK0HbJ1PkJ8L1LAlBMmmMvFNOCALRxgC3Z7D1PMyCYWAUgcPrHbJwwK4IvUf5Xk1S0FuPmBEpWZvR7Am+AMHL8LIHcfIeURpE9A5AfUjFW3aGZTHeoIxzPABRLqGtVOQ6A+QnZm6zvUGYr5WiC8HSwxhEAnhbBB0CZzZqLqaryIfjmqpHbKLbHAG/snEAFoaHugEo6l5ni9RNgk/nSJUg/hDxq9QZAtVWXrgsgywaKDKaGUmBWcYfoucyUJlM0Jm7R1ZogYik2Y+doBetIqukiNukJ+ERUvpS5odQgCxnSxc6erlFW7xyGETdAGil1DCjGE3HIg3ocMx/LVaMWkxUgMJWp1URhpR455Ic22NwZ2auOAaqhwOpUjJuTRaDbZE6g5mVtxQGCY4A6Eg7Q5pbVggZ4rkstyrqE/Sj4WpKOa1tsboAsHYcDxDlFWxnV9hgAT2cG/Jflx0zAIiHoElvbO34EHBEYoOgMTmAdAxRLhJmokgGgiivCPy1HUqQP4Uo5urPDWUZYvzxC5Vxgut4vIYIDPY3Dr8loQqHJi12DKmWFR8TuavWEutyhymjCEEdcAABVv9EEOaur5JXoOH55gro0qjVbqUo+00BP/HIkFa7J2LpcWtUNENGwmFVl0Bb+O8dZ4Qd8zYVmy9qzHG1L8CVlpThSeAdQfRRm9UudkS0lcae+m6Nt8VyTtK9EbnPd0gpgDwBFHAkZ5BIDovBc3gaGHUC16p8HxIOUU0NK3ijYrqcEEd8AJEoI3ebAsbi46kYKABf8KDMIAI7vKGOpH4meEGTKZTeGzx0/UVZKy+wHxqIUJnDdSgArj4RpNc1m7SRKhDfmYWIP6KxqWEwbydtRV0WOMdNnAmSZcZg5SM9BXVBlo081BIiDCB4PWkutBDuoot5jlKN8qBtzPJsuMw0pbnxyOiGTlewYgc+kjTB7uo9yIjR85ozrw6ISHuLYbz+OKoBfjpQG6ToG2LHffqRW1HUhon1o1+qjnx3XZQGl3BUuZF140HIlidJd2hDBB0CYzXpHPHGJ1cc78kwHkNriZW11W379T4mpy5UkkzVZW92iI6QihQcAAmn9SVtpmZu61KestLD1LiYqxyGD52iNd0gfF76oHb2EXgzyfU5a1ltdlEwmjbnIecYNJrXXpMX+lilr0Iqa5YJ0R1VfxlZYzAsPW27P/b2AEk5Zfrvzviuy5Phez475AotvTsvdzg6iuQGyHK2QNKRpOq104cB0Zee1GJ0Gq9sAbrxBOutrlXiefPuDTksVvso3XnF5S5ElO0cKWn6HqMp7bCwpRal/ouiQgVBmtJpJLdAPnnvGOQM5QOYASC1NI1bmJNbT7Kz1XrQiOr/Vo8hif6v1iMJJY+ULHHTrtqwX5wF/8HweOXBGJth2SF1nOizl8KZGn4lOebGPOE8XRwKvV9qIG9Rh5y8lvngu0lZrLz/7m4S76/HH+w8gvlyfnm6/n9h/zz+YwEe3H1uEj/8A);lineShape=1;hachureGap=4;fontFamily=Architects Daughter;fontSource=https%3A%2F%2Ffonts.googleapis.com%2Fcss%3Ffamily%3DArchitects%2BDaughter;fontSize=20;dashed=1;sketch=1;curveFitting=1;jiggle=2;" vertex="1" parent="1">
          <mxGeometry x="786.8589769234814" y="349.2806786932281" width="18.091497015555888" height="366.4847130005967" as="geometry" />
        </mxCell>
        <mxCell id="V53_U7stMitKDVPbiNtJ-23" value="&lt;h1 style=&quot;line-height: 120%; font-size: 25px;&quot;&gt;Security&lt;/h1&gt;&lt;h1 style=&quot;line-height: 0%; font-size: 25px;&quot;&gt;Sub-domain&lt;/h1&gt;&lt;div style=&quot;font-size: 25px;&quot;&gt;(Generic)&lt;br style=&quot;font-size: 25px;&quot;&gt;&lt;/div&gt;" style="text;html=1;strokeColor=none;fillColor=none;spacing=5;spacingTop=-20;whiteSpace=wrap;overflow=hidden;rounded=0;fontSize=25;fontFamily=Architects Daughter;" vertex="1" parent="1">
          <mxGeometry x="80" y="315" width="210" height="120" as="geometry" />
        </mxCell>
        <mxCell id="V53_U7stMitKDVPbiNtJ-24" value="&lt;div style=&quot;font-size: 25px;&quot;&gt;&lt;br&gt;&lt;/div&gt;&lt;div style=&quot;font-size: 25px;&quot;&gt;Factories&lt;/div&gt;&lt;div style=&quot;font-size: 25px;&quot;&gt;Sub-Domain&lt;br style=&quot;font-size: 25px;&quot;&gt;&lt;/div&gt;&lt;div style=&quot;font-size: 25px;&quot;&gt;(Core)&lt;br style=&quot;font-size: 25px;&quot;&gt;&lt;/div&gt;" style="text;html=1;strokeColor=none;fillColor=none;spacing=5;spacingTop=-20;whiteSpace=wrap;overflow=hidden;rounded=0;fontSize=25;fontFamily=Architects Daughter;" vertex="1" parent="1">
          <mxGeometry x="309" y="110" width="210" height="120" as="geometry" />
        </mxCell>
        <mxCell id="V53_U7stMitKDVPbiNtJ-25" value="Legend" style="shape=table;startSize=30;container=1;collapsible=0;childLayout=tableLayout;fontSize=16;align=left;verticalAlign=top;fontStyle=1;spacingLeft=6;spacing=0;resizable=0;hachureGap=4;fontFamily=Helvetica;swimlaneLine=1;fillColor=default;" vertex="1" parent="1">
          <mxGeometry width="180" height="120" as="geometry" />
        </mxCell>
        <mxCell id="V53_U7stMitKDVPbiNtJ-26" value="" style="shape=tableRow;horizontal=0;startSize=0;swimlaneHead=0;swimlaneBody=0;strokeColor=inherit;top=0;left=0;bottom=0;right=0;collapsible=0;dropTarget=0;fillColor=none;points=[[0,0.5],[1,0.5]];portConstraint=eastwest;fontSize=12;hachureGap=4;fontFamily=Architects Daughter;fontSource=https%3A%2F%2Ffonts.googleapis.com%2Fcss%3Ffamily%3DArchitects%2BDaughter;" vertex="1" parent="V53_U7stMitKDVPbiNtJ-25">
          <mxGeometry y="30" width="180" height="30" as="geometry" />
        </mxCell>
        <mxCell id="V53_U7stMitKDVPbiNtJ-27" value="ACL - Anticorruption Layer" style="shape=partialRectangle;html=1;whiteSpace=wrap;connectable=0;strokeColor=inherit;overflow=hidden;fillColor=#1E4074;top=0;left=0;bottom=0;right=0;pointerEvents=1;fontSize=12;align=left;fontColor=#FFFFFF;gradientColor=none;spacingLeft=10;spacingRight=4;hachureGap=4;fontFamily=Helvetica;" vertex="1" parent="V53_U7stMitKDVPbiNtJ-26">
          <mxGeometry width="180" height="30" as="geometry">
            <mxRectangle width="180" height="30" as="alternateBounds" />
          </mxGeometry>
        </mxCell>
        <mxCell id="V53_U7stMitKDVPbiNtJ-28" value="" style="shape=tableRow;horizontal=0;startSize=0;swimlaneHead=0;swimlaneBody=0;strokeColor=inherit;top=0;left=0;bottom=0;right=0;collapsible=0;dropTarget=0;fillColor=none;points=[[0,0.5],[1,0.5]];portConstraint=eastwest;fontSize=12;hachureGap=4;fontFamily=Architects Daughter;fontSource=https%3A%2F%2Ffonts.googleapis.com%2Fcss%3Ffamily%3DArchitects%2BDaughter;" vertex="1" parent="V53_U7stMitKDVPbiNtJ-25">
          <mxGeometry y="60" width="180" height="30" as="geometry" />
        </mxCell>
        <mxCell id="V53_U7stMitKDVPbiNtJ-29" value="OHS - Open Host Service" style="shape=partialRectangle;html=1;whiteSpace=wrap;connectable=0;strokeColor=inherit;overflow=hidden;fillColor=#3162AF;top=0;left=0;bottom=0;right=0;pointerEvents=1;fontSize=12;align=left;fontColor=#FFFFFF;gradientColor=none;spacingLeft=10;spacingRight=4;hachureGap=4;fontFamily=Helvetica;" vertex="1" parent="V53_U7stMitKDVPbiNtJ-28">
          <mxGeometry width="180" height="30" as="geometry">
            <mxRectangle width="180" height="30" as="alternateBounds" />
          </mxGeometry>
        </mxCell>
        <mxCell id="V53_U7stMitKDVPbiNtJ-30" value="" style="shape=tableRow;horizontal=0;startSize=0;swimlaneHead=0;swimlaneBody=0;strokeColor=inherit;top=0;left=0;bottom=0;right=0;collapsible=0;dropTarget=0;fillColor=none;points=[[0,0.5],[1,0.5]];portConstraint=eastwest;fontSize=12;hachureGap=4;fontFamily=Architects Daughter;fontSource=https%3A%2F%2Ffonts.googleapis.com%2Fcss%3Ffamily%3DArchitects%2BDaughter;" vertex="1" parent="V53_U7stMitKDVPbiNtJ-25">
          <mxGeometry y="90" width="180" height="30" as="geometry" />
        </mxCell>
        <mxCell id="V53_U7stMitKDVPbiNtJ-31" value="PL - Published Language" style="shape=partialRectangle;html=1;whiteSpace=wrap;connectable=0;strokeColor=inherit;overflow=hidden;fillColor=#52a2d8;top=0;left=0;bottom=0;right=0;pointerEvents=1;fontSize=12;align=left;fontColor=#FFFFFF;gradientColor=none;spacingLeft=10;spacingRight=4;hachureGap=4;fontFamily=Helvetica;" vertex="1" parent="V53_U7stMitKDVPbiNtJ-30">
          <mxGeometry width="180" height="30" as="geometry">
            <mxRectangle width="180" height="30" as="alternateBounds" />
          </mxGeometry>
        </mxCell>
      </root>
    </mxGraphModel>
  </diagram>
</mxfile>
